<?xml version="1.0" encoding="UTF-8" standalone="no"?>
<!-- Created with Inkscape (http://www.inkscape.org/) -->

<svg
   width="210mm"
   height="297mm"
   viewBox="0 0 210 297"
   version="1.1"
   id="svg257"
   inkscape:version="1.2.2 (732a01da63, 2022-12-09)"
   sodipodi:docname="Mu.svg"
   xmlns:inkscape="http://www.inkscape.org/namespaces/inkscape"
   xmlns:sodipodi="http://sodipodi.sourceforge.net/DTD/sodipodi-0.dtd"
   xmlns="http://www.w3.org/2000/svg"
   xmlns:svg="http://www.w3.org/2000/svg">
  <sodipodi:namedview
     id="namedview259"
     pagecolor="#ffffff"
     bordercolor="#000000"
     borderopacity="0.25"
     inkscape:showpageshadow="2"
     inkscape:pageopacity="0.0"
     inkscape:pagecheckerboard="0"
     inkscape:deskcolor="#d1d1d1"
     inkscape:document-units="mm"
     showgrid="false"
     inkscape:zoom="0.51276154"
     inkscape:cx="606.51975"
     inkscape:cy="747.91101"
     inkscape:window-width="1920"
     inkscape:window-height="1001"
     inkscape:window-x="-9"
     inkscape:window-y="-9"
     inkscape:window-maximized="1"
     inkscape:current-layer="layer1" />
  <defs
     id="defs254" />
  <g
     inkscape:label="Layer 1"
     inkscape:groupmode="layer"
     id="layer1">
    <path
       id="Mu"
       style="clip-rule:evenodd;fill:#b3b3b3;fill-opacity:1;fill-rule:evenodd;stroke:#ffffff;stroke-width:0.264583;stroke-linejoin:bevel;image-rendering:optimizeQuality;shape-rendering:geometricPrecision;text-rendering:geometricPrecision"
       class="region"
       d="m 142.55068,4.1498099 c -0.65008,0.03279 -1.23788,0.263342 -1.45933,0.768945 -0.88453,2.018739 1.65917,4.928921 0.2377,6.6130331 -1.97443,2.340033 -6.37739,1.161471 -8.58811,3.283522 -0.8939,0.85689 2.1241,2.112936 1.73582,3.291787 -0.60761,1.845098 -2.22329,4.104614 -4.16771,4.082955 -3.82249,-0.04466 -7.1787,-5.860429 -10.64895,-4.258654 -2.77133,1.280501 1.30706,6.391005 0.0289,9.165333 -0.55562,1.208178 -2.92624,-1.549752 -3.9388,-0.684196 -1.22216,1.044866 0.21011,3.521644 -0.8201,4.756814 -0.96888,1.160518 -3.23165,0.351634 -4.32117,1.402498 -0.57394,0.553929 1.2107,2.242333 0.42013,2.362647 -2.67999,0.407948 -5.35038,-1.483188 -8.04707,-1.198893 -2.22639,0.23464 -4.336439,3.983699 -6.166539,2.688209 -2.21138,-1.566466 0.78373,-6.360107 -1.35598,-8.016566 -1.50281,-1.161851 -2.6502,3.391988 -4.55063,3.44165 -1.48915,0.038 -1.59573,-3.398941 -3.07887,-3.246313 -1.7248,0.178644 -1.74493,3.510005 -3.4334,3.918625 -1.06587,0.257635 -1.36038,-1.726105 -2.0407,-2.586922 -1.42923,0.703649 -4.07609,0.532001 -4.29276,2.110465 -0.47628,3.470879 4.06935,7.009355 2.59985,10.191626 -0.97655,2.114074 -5.10659,-2.21397 -6.94635,-0.785482 -1.84509,1.432807 1.05336,5.805541 -0.98702,6.942728 -1.87209,1.042869 -3.42509,-2.815675 -5.50717,-3.322278 -0.86654,-0.210637 -2.29921,0.543171 -2.26756,1.435055 0.096,2.736996 2.44112,5.072325 2.58175,7.80831 0.16267,3.147957 0.98533,7.663704 -1.70532,9.303824 -3.58151,2.182723 -8.56938,-1.837121 -12.57752,-0.594278 -2.17308,0.67423 -1.54186,5.341433 -3.79357,5.678723 -3.20226,0.479955 -5.74411,-3.350331 -8.95604,-3.76928 -0.85389,-0.110985 0.13903,2.109663 -0.62323,2.515611 -1.65513,0.882221 -3.70607,0.940749 -5.57485,0.789098 -4.27744,-0.347287 -8.48302,-1.357482 -12.67984,-2.271697 -1.70111,-0.370617 -3.26678,-1.873093 -4.98057,-1.57613 -1.99607,0.345609 -4.38973,1.422556 -5.09529,3.323312 -0.78759,2.1214 2.73095,4.825288 1.39112,6.649723 -1.1222,1.528471 -3.9226802,-1.715977 -5.6244602,-0.881084 -1.00654,0.493593 1.59346,2.617512 0.70126,3.30109 -3.15393,2.417688 -7.90883996,2.112023 -11.00813,4.604367 -1.60946,1.29417 -0.71331,4.26487 -2.01848,5.872 -0.74091,0.91255 -2.41682,1.43356 -3.4277,0.83664 -1.8340898,-1.08353 -1.7717598,-5.68961 -3.8224998,-5.12269 -3.94218,1.08988 -5.01886,6.95278 -8.76174,8.60723 -3.36259,1.48648 -7.50235,1.16667 -11.03757,0.14779 -1.0942,-0.31496 0.67957,-4.06694 -0.24598,-3.40702 -3.60455,2.56901 -4.99706,7.73981 -8.86458,9.9012 -2.655,1.48348 -6.23087,-0.77228 -9.1245,0.16227 -2.99094,0.96589 -6.34449,2.520193 -7.79798,5.307173 -1.35783,2.604 1.35968,6.01887 0.43047,8.80618 -0.33662,1.00951 -2.29806,-1.88704 -3.00964,-1.09348 -1.2765,1.42285 0.43846,4.46616 -1.07435,5.641 -1.41382,1.09753 -3.70733,-1.41723 -5.33146,-0.66766 -1.48581,0.68558 -1.62973,2.84196 -2.44636,4.26331 1.04847,2.05559 2.82804,3.88382 3.14399,6.1712 0.10567,0.76592 -1.88702,-0.83221 -2.3213,-0.18965 -1.29417,1.91776 -4.23637,5.93122 -2.03399,6.64145 5.39632,1.74113 11.24423,-2.05832 16.90853,-1.84433 1.15154,0.0433 2.93109,1.59734 2.31717,2.57555 -0.89988,1.43613 -3.9448,0.0671 -4.87102,1.48828 -0.59493,0.91253 1.62566,1.51095 2.61121,1.97456 3.87752,1.8241 7.66242,4.28288 11.9109,4.85914 2.4477,0.33195 4.84519,-3.3753 7.0559,-2.27945 3.25395,1.61348 3.19994,6.99787 6.29523,8.90126 1.96409,1.20788 7.1705,-3.09182 6.86521,-0.80977 l -0.73845,5.5206 c -0.43727,3.26793 6.22681,2.21906 9.43973,2.95796 1.02654,0.23629 2.81342,-1.04995 3.1563998,-0.0584 0.44826,1.29583 -2.2236698,2.31656 -1.9073798,3.65404 l 2.2567098,9.53586 c 0.27333,1.15653 -3.1943098,-1.24892 -3.5682598,-0.12041 -2.49602,7.53335 -4.4371,15.51509 -4.16047,23.44973 0.06,1.71948 5.1004,-0.48418 5.01675,1.23661 -0.0976,2.00975 -3.89154,1.52093 -5.22604,3.02774 -1.17151,1.32252 -0.21147,4.32567 -1.85725,4.96662 -1.34851,0.52494 -1.68406,-3.07387 -3.13056,-3.01791 -2.61432,0.10133 -5.89018,1.07307 -7.0807,3.40444 l -3.41168,6.68023 c -0.41428,0.81087 0.50626,2.15432 1.39681,2.3523 2.10639,0.46861 5.54478,-2.56098 6.44767,-0.60359 0.85388,1.85145 -5.34737,0.13012 -5.73867,2.13217 -0.42595,2.17773 5.05921,2.97207 4.32997,5.06947 -0.6699,1.92744 -7.94799,-0.83772 -6.13089,0.0982 l 11.13317,5.73193 c 4.91239,2.52934 -3.0649,10.89549 -2.50631,16.39745 0.13965,1.37882 3.43682,-1.21492 4.15841,-0.0331 1.2065,1.97478 0.0475,4.63315 0.0357,7.08176 2.75317,-0.86399 5.37615,-3.01392 8.32714,-2.84892 1.4418098,0.0803 0.99771,3.52493 2.4411998,3.58891 1.61647,0.0714 1.93284,-3.19918 3.54397,-3.31814 1.83443,-0.13565 3.65153,1.27863 4.81572004,2.70113 0.43296,0.52893 -1.88109004,1.22174 -1.30483004,1.59266 1.63210004,1.05021 3.85061,1.84002 5.69837,1.23611 1.49282,-0.48795 1.12054,-3.35812 2.57503,-3.94137 2.21673,-0.88937 5.3099202,1.52331 7.1680402,0.0249 1.90243,-1.53482 -0.007,-5.35821 1.65624,-7.14634 1.67076,-1.79507 4.86878,-3.36034 7.02384,-2.19313 1.9281,1.04452 -0.11144,4.60118 0.95808,6.51793 0.56293,1.00854 2.13699,1.09262 3.29282,1.09553 5.62197,0.0114 11.60092,0.99349 16.83827,-1.05058 2.20604,-0.86119 0.98454,-4.93974 2.69129,-6.57685 1.38721,-1.33051 3.79502,-2.02105 5.6038,-1.37509 2.1504,0.76821 2.72073,3.81772 4.6488,5.04256 1.33853,0.85058 3.53063,-0.20302 4.67879,0.88884 0.70329,0.66826 -1.45135,2.0978 -0.78909,2.80707 0.94922,1.01685 2.81321,1.25891 4.11138,0.75396 1.91045,-0.74293 2.60578,-3.51216 4.55785,-4.12843 1.28984,-0.40693 2.87501,2.49984 3.77756,1.49397 1.07188,-1.19451 -2.45512,-4.92302 -0.86299,-4.73771 3.38759,0.39394 5.26904,4.67887 8.54263,5.6374 0.96623,0.28294 0.21828,-2.40382 1.14514,-2.79778 1.13657,-0.48295 2.42112,0.48834 3.62098,0.77464 2.9413,0.70189 5.78663,2.38988 8.80359,2.19057 1.58549,-0.10467 2.55529,-4.11171 3.69848,-3.0112 1.23518,1.18951 -3.11973,3.69697 -1.82057,4.8178 2.16405,1.86777 5.842979,-0.0175 8.522989,0.97049 1.20587,0.44461 1.11797,3.31528 2.37713,3.04631 1.16287,-0.24829 -0.56666,-2.55728 0.0543,-3.57082 1.04855,-1.71212 2.77019,-3.02292 4.55166,-3.94449 2.40202,-1.24282 6.5342,-0.009 7.74475,-2.42567 1.42716,-2.84864 -2.11828,-6.21522 -1.82367,-9.38549 0.0866,-0.93456 2.12728,0.11915 2.75952,-0.57308 1.4885,-1.63013 0.98243,-6.43912 3.10783,-5.85185 4.84338,1.33885 6.8436,7.75812 11.40603,9.85883 1.5358,0.70691 3.06771,-3.67371 4.36356,-2.59054 2.63099,2.19903 1.52794,7.05988 3.92533,9.51053 0.98391,1.00555 2.65015,-0.95395 3.99563,-1.53117 0.32925,-2.16202 -0.65003,-4.94482 0.94411,-6.27867 1.75977,-1.4728 5.29416,1.30808 6.8766,-0.35039 1.26051,-1.32146 -3.25022,-4.69193 -1.51775,-5.26684 3.6522,-1.21188 7.54144,2.33828 11.37295,1.99263 3.13696,-0.28261 5.51051,-3.92946 8.65476,-3.79148 2.72299,0.11932 4.13475,4.70318 6.85075,4.47619 1.72546,-0.14399 -0.55993,-4.15618 0.8749,-5.11905 2.99225,-2.00875 8.30525,0.32202 10.51097,-2.52595 1.85743,-2.39805 0.40868,-6.70171 -1.62107,-8.95139 -1.50815,-1.67113 -4.99698,1.08432 -6.74844,-0.32919 -1.67378,-1.35118 -2.09915,-4.2372 -1.45986,-6.29161 0.85457,-2.74595 4.17906,-4.0954 5.48857,-6.65075 1.08484,-2.11741 0.22783,-4.97263 1.49963,-6.98304 0.7126,-1.1262 2.47904,-1.6768 3.76721,-1.34618 1.00423,0.25766 0.52496,2.89949 1.54618,2.70786 2.0094,-0.3773 2.82633,-3.17712 4.73511,-3.90002 3.02763,-1.14654 6.81657,0.13362 9.59218,-1.53117 1.70714,-1.02385 0.40415,-4.71601 2.2076,-5.55162 1.83907,-0.85187 3.78741,2.07807 5.80017,1.83711 1.16017,-0.13867 2.23235,-1.62316 2.12805,-2.78431 -0.18302,-2.03476 -3.96833,-3.70322 -2.86443,-5.42036 2.39233,-3.72052 7.37465,-4.88694 11.07529,-7.3551 0.0199,-2.62249 -0.79208,-5.35318 0.0326,-7.80986 0.32962,-0.98322 2.5841,-0.0541 2.94039,-1.02733 l 2.05052,-5.59345 c 0.47027,-1.28317 -2.44792,-1.7726 -2.65927,-3.12178 -0.14097,-0.90487 1.6083,-1.146 1.85364,-2.02623 0.28327,-1.01487 0.40053,-2.46856 -0.41238,-3.13314 -2.72399,-2.22572 -6.98203,-2.28317 -9.37307,-4.86482 -1.01521,-1.09655 1.06426,-2.95381 0.77462,-4.4173 -0.15031,-0.76058 -0.58338,2.34346 -1.26296,1.96318 -0.75655,-0.42395 0.88929,-2.20349 0.12041,-2.60242 -2.4897,-1.29118 -5.72937,-0.41388 -8.26204,-1.62471 -2.2194,-1.06119 -5.49233,-2.48442 -5.47976,-4.94543 0.01,-1.87245 4.65966,0.59803 5.51386,-1.06609 0.67562,-1.31683 -4.21925,-1.03935 -3.71967,-2.43086 0.58862,-1.63875 4.14528,0.1704 5.06585,-1.30741 0.91821,-1.47482 -1.67111,-3.46848 -1.07953,-5.09995 0.35764,-0.98688 3.4041,0.50553 3.10679,-0.49868 -0.40394,-1.36448 -4.18602,-0.53557 -3.81939,-1.90841 0.51827,-1.94009 3.44244,-2.07628 5.16453,-3.1135 0.11494,-1.33948 1.45026,-3.26247 0.34108,-4.01371 -3.13695,-2.1234 -7.28081,-2.11762 -10.92803,-3.15381 -0.67456,-0.19166 -2.36247,0.091 -2.04018,-0.53227 0.69924,-1.35115 3.34791,-1.19611 3.69951,-2.67425 0.23932,-1.00787 -2.81453,-0.54339 -2.68356,-1.56993 0.14965,-1.17286 2.41726,-0.7547 3.10316,-1.7136 1.60245,-2.240043 3.73454,-4.752253 3.48094,-7.492563 -0.19201,-2.07342 -4.05778,-2.25133 -4.56406,-4.27106 -0.86691,-3.45523 1.52056,-7.1678 0.81597,-10.661362 -0.43061,-2.132402 -1.8434,-4.955884 -4.00648,-5.148525 -2.45406,-0.218654 -3.60664,4.003315 -6.06165,4.247288 -2.23637,0.222311 -3.78021,-2.805166 -6.01462,-3.050461 -1.72844,-0.189971 -3.14558,1.938533 -4.88238,1.845882 -1.36517,-0.07299 -3.03916,-0.972114 -3.4091,-2.289265 -0.43794,-1.556478 2.1695,-3.178432 1.45624,-4.626592 -0.76155,-1.546802 -3.58696,-0.789427 -4.75216,-2.062925 -0.5489,-0.599916 1.42939,-1.922586 0.72917,-2.328539 -2.59535,-1.504157 -6.2043,-0.635609 -8.70697,-2.293401 -0.86357,-0.571928 1.17057,-2.130126 0.66662,-3.031339 -0.75491,-1.350838 -4.26841,-1.146191 -3.8318,-2.630329 0.58658,-1.995421 4.30657,-1.265851 5.47873,-2.978632 0.6776,-0.989864 -1.50302,-2.307388 -1.09038,-3.433897 0.30263,-0.827236 2.05756,0.107371 2.5735,-0.602546 0.82322,-1.132189 1.34977,-2.804981 0.85886,-4.11448 -0.8409,-2.243386 -3.92139,-3.279535 -4.51032,-5.60224 -0.46596,-1.837436 2.07478,-3.568076 1.70479,-5.425509 -0.50059,-2.510028 -4.18243,-3.952029 -4.08348,-6.510716 0.0757,-1.967746 2.99205,-2.563035 4.48707,-3.843692 -2.01853,-0.627388 -4.46712,-0.486431 -6.05491,-1.877923 -1.94844,-1.706446 -1.83054,-5.107234 -3.81529,-6.77168 -1.3045,-1.094192 -3.81055,0.47326 -5.06375,-0.675926 -2.37038,-2.17339 -2.44192,-6.1892281 -4.80695,-8.3679661 -1.08522,-0.999538 -3.11338,-0.808255 -4.43021,-0.13901 -0.89123,0.451943 -0.004,3.2593311 -0.91985,2.8577071 -2.35736,-1.0338651 -3.12722,-4.2597841 -5.3263,-5.5986231 -0.46943,-0.285798 -1.18185,-0.45085 -1.83193,-0.418063 z M 88.400001,101.79398 c 1.15816,-0.19329 -0.18114,2.89332 0.87074,3.41892 2.8143,1.40582 6.74241,-0.18176 9.29709,1.65468 1.39115,1.00054 -1.1834,4.07681 0.15711,5.148 2.195039,1.75378 5.900629,0.1075 8.281669,1.59629 0.99653,0.62293 -0.89149,2.68688 -0.0749,3.53208 1.69013,1.7498 5.04722,1.29523 6.56704,3.19464 0.91186,1.14053 0.4336,3.2554 -0.52763,4.35891 -1.76911,2.03042 -5.94244,1.67274 -6.91896,4.18475 -1.31385,3.37989 1.54064,7.22905 1.07902,10.82725 -0.10433,0.81157 -1.80337,-1.02278 -2.41432,-0.47749 -0.64458,0.57523 0.87855,2.80852 0.0413,2.59519 -3.04892,-0.77858 -5.214879,-3.6955 -8.205169,-4.6824 -0.66056,-0.2176 -0.78619,1.35604 -1.47278,1.49035 -2.24872,0.43993 -4.71141,-0.61416 -6.87348,0.14107 -0.67225,0.23464 1.25267,1.65881 0.65111,2.03709 -1.49651,0.94056 -3.76938,-0.12857 -5.24152,0.85163 -1.88479,1.25487 -2.05135,4.52384 -4.1424,5.39605 -2.70735,1.129 -6.38281,-1.642 -8.80515,0.0134 -1.77612,1.21418 1.43589,5.79452 -0.62217,6.43475 -3.29192,1.02421 -7.22122,-0.94041 -9.84488,-3.17448 -1.00986,-0.86023 2.72603,-1.4914 2.8117,-2.81223 0.0564,-0.87289 -2.49076,0.49116 -2.60241,-0.37776 -0.19833,-1.54444 2.88139,-2.92193 2.01848,-4.21576 -1.22452,-1.83443 -5.25296,-0.19037 -6.26319,-2.15077 -0.83921,-1.62781 2.92608,-2.98683 2.67943,-4.80126 -0.15766,-1.15953 -2.6535,0.11897 -3.43442,-0.75293 -1.54445,-1.72476 -1.39253,-4.55957 -2.89698,-6.31899 -0.7589,-0.88756 -3.88749,0.0515 -3.36621,-0.99374 1.04121,-2.08771 5.67597,-1.57693 5.80895,-3.90364 0.15232,-2.65968 -2.98143,-4.62092 -5.23377,-6.04407 -1.07823,-0.68126 -4.8068,1.13528 -3.8189,0.32504 3.19128,-2.61699 6.76178,-5.23908 10.8076,-6.05699 1.3875,-0.28026 1.30037,2.85469 2.63189,3.33933 1.85912,0.67688 4.64272,1.27403 5.9309,-0.22376 1.52612,-1.77514 -1.12758,-5.16265 0.30025,-7.01508 1.03952,-1.34982 3.47435,0.45362 5.11183,-0.015 6.04856,-1.73279 11.50691,-5.48859 17.71314,-6.52312 z"
       inkscape:label="#Central Bohemian" />
  </g>
</svg>
