<?xml version="1.0" encoding="UTF-8" standalone="no"?>
<svg
   version="1.1"
   id="Layer_1"
   x="0px"
   y="0px"
   viewBox="0 0 55.549251 55.549253"
   xml:space="preserve"
   sodipodi:docname="pillar-icon.svg"
   width="55.549252"
   height="55.549252"
   inkscape:version="1.2.2 (732a01da63, 2022-12-09)"
   xmlns:inkscape="http://www.inkscape.org/namespaces/inkscape"
   xmlns:sodipodi="http://sodipodi.sourceforge.net/DTD/sodipodi-0.dtd"
   xmlns="http://www.w3.org/2000/svg"
   xmlns:svg="http://www.w3.org/2000/svg"><defs
     id="defs34382" /><sodipodi:namedview
     id="namedview34380"
     pagecolor="#ffffff"
     bordercolor="#000000"
     borderopacity="0.25"
     inkscape:showpageshadow="2"
     inkscape:pageopacity="0.0"
     inkscape:pagecheckerboard="0"
     inkscape:deskcolor="#d1d1d1"
     showgrid="false"
     inkscape:zoom="6.6243491"
     inkscape:cx="34.116559"
     inkscape:cy="49.740736"
     inkscape:window-width="1920"
     inkscape:window-height="1001"
     inkscape:window-x="-9"
     inkscape:window-y="-9"
     inkscape:window-maximized="1"
     inkscape:current-layer="Layer_1" /><style
     type="text/css"
     id="style34373">.st0{fill-rule:evenodd;clip-rule:evenodd;}</style><g
     id="g34377"
     transform="matrix(0.2665997,0,0,0.2665997,17.602566,6.472453)" /><path
     id="rect34580"
     d="m 21.074605,23.388944 h 14.49199 v 25.360983 h -14.49199 z m 10.653336,24.444449 c -0.210879,-0.210878 -0.23722,-1.347383 -0.23722,-10.234967 0,-7.574748 0.0439,-10.04165 0.18115,-10.178898 0.266772,-0.266772 0.793201,-0.220447 1.078598,0.09491 0.227122,0.250967 0.249835,1.175173 0.249835,10.166284 0,9.389768 -0.01397,9.902862 -0.276064,10.140053 -0.346703,0.313763 -0.690795,0.318119 -0.996299,0.01262 z m -4.528747,0 c -0.210825,-0.210825 -0.23722,-1.337307 -0.23722,-10.124125 0,-6.52661 0.05311,-9.986146 0.15627,-10.178897 0.189082,-0.353304 0.788161,-0.382704 1.116093,-0.05477 0.210845,0.210846 0.23722,1.34114 0.23722,10.166284 0,9.4274 -0.01395,9.941686 -0.276064,10.178897 -0.346702,0.313763 -0.690794,0.318119 -0.996299,0.01262 z m -4.516132,-0.03884 c -0.227129,-0.250974 -0.249834,-1.176049 -0.249834,-10.178897 0,-8.801299 0.02639,-9.929222 0.23722,-10.140055 0.327931,-0.327931 0.92701,-0.298531 1.116092,0.05477 0.103158,0.192751 0.15627,3.652287 0.15627,10.178897 0,8.786818 -0.0264,9.9133 -0.23722,10.124125 -0.315187,0.315188 -0.715912,0.299965 -1.022528,-0.03884 z m -6.475755,-30.00023 h 23.284818 c 0.477213,0 0.869115,0.391902 0.869115,0.869115 v 2.047486 c 0,0.477213 -0.391902,0.869115 -0.869115,0.869115 h -1.079729 v 2.753975 c 0,0.477213 -0.391902,0.869115 -0.869115,0.869115 H 35.562445 V 50.551425 H 20.139653 V 25.205792 h -1.980836 c -0.477214,0 -0.869115,-0.391902 -0.869115,-0.869115 v -2.753975 h -1.082395 c -0.477213,0 -0.869115,-0.391902 -0.869115,-0.871781 v -2.047486 c 0,-0.477213 0.391902,-0.869115 0.869115,-0.869115 z m 6.995576,9.31766 v 0 c 0.458552,0 0.831791,0.373239 0.831791,0.831791 v 19.38713 c 0,0.458551 -0.373239,0.831791 -0.831791,0.831791 v 0 c -0.458551,0 -0.831791,-0.37324 -0.831791,-0.831791 v -19.38713 c 0,-0.458552 0.375906,-0.831791 0.831791,-0.831791 z m 9.013736,0 v 0 c 0.458551,0 0.831791,0.373239 0.831791,0.831791 v 19.38713 c 0,0.458551 -0.37324,0.831791 -0.831791,0.831791 v 0 c -0.458551,0 -0.831791,-0.37324 -0.831791,-0.831791 v -19.38713 c -0.0027,-0.458552 0.37324,-0.831791 0.831791,-0.831791 z m -4.508201,0 v 0 c 0.458552,0 0.831791,0.373239 0.831791,0.831791 v 19.38713 c 0,0.458551 -0.373239,0.831791 -0.831791,0.831791 v 0 c -0.458551,0 -0.831791,-0.37324 -0.831791,-0.831791 v -19.38713 c 0,-0.458552 0.375906,-0.831791 0.831791,-0.831791 z" /><path
     id="path34889"
     style="stroke-width:0.70011"
     d="m 36.660267,27.141431 v 22.039054 h 8.201172 v -1.21288 h 0.0039 V 32.125806 h 1.439453 c 0.347662,0 0.632812,-0.264867 0.632812,-0.585938 v -1.851562 h 0.78711 c 0.347661,0 0.632812,-0.264867 0.632812,-0.585938 v -1.376953 c 0,-0.321069 -0.285151,-0.583984 -0.632812,-0.583984 z" /><path
     id="path34889-0"
     style="stroke-width:0.70011"
     d="m 19.087815,27.197395 v 22.039054 h -8.201172 v -1.21288 h -0.0039 V 32.18177 H 9.4432898 c -0.347662,0 -0.632812,-0.264867 -0.632812,-0.585938 V 29.74427 H 8.023368 c -0.347661,0 -0.632812,-0.264867 -0.632812,-0.585938 v -1.376953 c 0,-0.321069 0.285151,-0.583984 0.632812,-0.583984 z" /><g
     style="clip-rule:evenodd;fill-rule:evenodd;image-rendering:optimizeQuality;shape-rendering:geometricPrecision;text-rendering:geometricPrecision"
     id="g34862"
     transform="scale(0.10849463)"><path
       fill-rule="nonzero"
       d="M 256,0 C 326.69,0 390.69,28.66 437.02,74.98 483.34,121.31 512,185.31 512,256 512,326.69 483.34,390.69 437.02,437.02 390.69,483.34 326.69,512 256,512 185.31,512 121.31,483.34 74.98,437.02 28.66,390.69 0,326.69 0,256 0,185.31 28.66,121.31 74.98,74.98 121.31,28.66 185.31,0 256,0 Z M 403.19,108.81 C 365.52,71.15 313.48,47.85 256,47.85 c -57.48,0 -109.52,23.3 -147.19,60.96 -37.66,37.67 -60.96,89.71 -60.96,147.19 0,57.48 23.3,109.52 60.96,147.19 37.67,37.66 89.71,60.96 147.19,60.96 57.48,0 109.52,-23.3 147.19,-60.96 37.66,-37.67 60.96,-89.71 60.96,-147.19 0,-57.48 -23.3,-109.52 -60.96,-147.19 z"
       id="path34853" /></g></svg>
